<svg width="255" height="236" viewBox="0 0 255 236" fill="none" xmlns="http://www.w3.org/2000/svg">
<path d="M3.24343e-06 14.7224L25.5 29.4448L25.5 135.446V176.669L0 161.947L3.24343e-06 14.7224Z" fill="#3B82F6"/>
<path d="M102 73.6121L127.5 88.3346V235.559L102 220.836V179.195V73.6121Z" fill="#3B82F6"/>
<path d="M25.5 176.669L63.7509 154.587L102 220.836V179.195L63.9312 113.258L25.5 135.446V176.669Z" fill="#6366F1"/>
<path d="M229.5 0L255 14.7224L127.5 88.3346L102 73.6122L229.5 0Z" fill="#3B82F6"/>
<path d="M0 14.7224L25.5 6.37666e-06L153 73.6122L127.5 88.3346L0 14.7224Z" fill="#6366F1"/>
<path d="M229.496 29.4448L254.996 14.7224V161.947L229.496 176.669V29.4448Z" fill="#E2E8F0"/>
<path d="M127.496 88.3346L152.996 73.6121L152.996 220.836L127.496 235.559L127.496 88.3346Z" fill="#E2E8F0"/>
<path d="M127.496 117.779L127.496 88.3346L254.996 14.7224V44.1673L127.496 117.779Z" fill="#6366F1"/>
<path d="M127.496 235.559L127.496 206.114L254.996 132.502V161.947L127.496 235.559Z" fill="#6366F1"/>
<path d="M127.496 176.669L127.496 147.224L254.996 73.6121V103.057L127.496 176.669Z" fill="#3B82F6"/>
</svg>
